<?xml version="1.0" standalone="no"?>
<!DOCTYPE svg PUBLIC "-//W3C//DTD SVG 20010904//EN"
 "http://www.w3.org/TR/2001/REC-SVG-20010904/DTD/svg10.dtd">
<svg version="1.0" xmlns="http://www.w3.org/2000/svg"
 width="384.000000pt" height="384.000000pt" viewBox="0 0 384.000000 384.000000"
 preserveAspectRatio="xMidYMid meet">
<metadata>
Created by potrace 1.14, written by Peter Selinger 2001-2017
</metadata>
<g transform="translate(0.000000,384.000000) scale(0.100000,-0.100000)"
fill="#000000" stroke="none">
<path d="M1536 3423 c-4 -8 -4 -18 -1 -23 3 -4 7 -23 10 -41 3 -19 8 -50 11
-69 8 -52 7 -64 -12 -106 -9 -21 -18 -41 -18 -44 -1 -3 -13 -25 -28 -50 -14
-25 -36 -70 -48 -100 -12 -30 -28 -68 -35 -85 -37 -85 -38 -123 -5 -185 l19
-36 -42 -21 c-23 -11 -73 -36 -112 -54 -52 -25 -91 -54 -152 -115 -46 -46 -83
-89 -83 -96 0 -7 -6 -25 -14 -39 -23 -45 -56 -152 -62 -204 -3 -27 -7 -51 -9
-53 -2 -2 1 -17 5 -33 6 -20 5 -29 -3 -29 -8 0 -8 -3 1 -12 7 -7 12 -20 12
-30 0 -10 5 -18 11 -18 6 0 9 -6 6 -14 -3 -7 -1 -18 5 -24 7 -7 7 -16 -1 -29
-6 -10 -11 -15 -11 -11 0 4 -22 -6 -50 -22 -28 -16 -50 -27 -50 -24 0 3 -7 -1
-15 -8 -8 -7 -36 -28 -62 -47 -42 -29 -110 -106 -122 -136 -2 -5 -12 -21 -21
-35 -21 -29 -46 -113 -55 -180 -3 -25 -8 -57 -11 -73 -2 -15 4 -49 15 -75 17
-42 29 -80 37 -122 5 -25 -26 -48 -108 -80 -139 -53 -205 -118 -266 -263 -35
-84 -37 -242 -3 -328 35 -91 146 -239 179 -239 7 0 12 -3 12 -8 0 -11 50 -31
105 -41 27 -5 110 -7 184 -5 136 4 166 6 251 19 25 3 61 8 80 10 19 2 55 7 80
10 69 10 132 13 285 15 143 1 179 -2 262 -21 61 -14 166 -22 478 -35 210 -9
678 -10 801 -1 189 14 320 56 454 147 67 46 97 80 128 145 32 66 37 88 36 170
-2 141 -46 252 -133 334 -20 18 -35 38 -33 43 1 5 -2 7 -7 3 -6 -3 -36 8 -69
24 -32 16 -85 37 -118 46 -32 10 -63 21 -68 25 -4 4 0 34 9 67 10 32 18 64 18
71 0 6 3 12 6 12 11 0 16 161 7 220 -10 70 -11 72 -34 124 -25 56 -139 172
-177 182 -14 3 -25 10 -25 14 0 4 -12 10 -27 13 -41 9 -93 44 -102 69 -4 12
-4 40 1 63 5 22 11 67 13 100 3 53 0 69 -28 122 -36 69 -75 115 -132 158 -22
17 -42 32 -45 36 -5 5 -67 32 -85 36 -5 1 -26 5 -45 9 -87 16 -91 19 -84 67
23 157 -16 287 -132 438 -44 57 -137 148 -202 196 -20 15 -44 36 -53 45 -9 10
-19 18 -23 18 -3 0 -27 15 -53 34 -58 41 -218 126 -238 126 -8 0 -15 5 -15 12
0 6 -3 9 -6 5 -3 -3 -31 4 -62 15 -95 33 -120 38 -126 21z"/>
</g>
</svg>
