<svg xmlns="http://www.w3.org/2000/svg" data-name="Слой 2" viewBox="0 0 336.3 322.7"><g data-name="Слой 1"><path d="m131 0 26 10c28 13 71 46 63 82-1 4 1 6 5 7 16 1 27 11 35 24 4 7 2 14 1 20-2 9-1 10 7 14 26 11 34 31 28 57l-3 11c-1 3 0 4 3 5 23 7 35 13 40 39 1 9 0 17-4 26-5 10-15 15-24 19-17 8-35 9-53 9l-95-3-19-3c-19-2-37 0-56 2l-48 3c-10 0-17-5-24-12a48 48 0 0 1-12-42c3-15 11-28 26-33l10-4c3-2 4-4 3-8l-1-6c-6-14-2-27 5-39 6-12 17-18 28-24 4-2 4-4 3-7-5-9-3-19-1-28 6-20 18-32 37-39 3-2 9-4 6-9-3-4-3-9-1-14l11-24c7-10 5-21 3-31l1-2Zm42 282c17 1 33-6 47-16l9-7c4-3 4-7 2-11l-8-2c-29 3-58 3-87 2l-18-2c-5 0-9 0-10 4-1 2 0 6 1 8 1 3 4 5 6 6 17 13 36 19 58 18Zm86-98c0-11-3-22-9-31a31 31 0 0 0-52 2c-10 16-8 33-2 51 5 14 17 19 31 19 13 1 20-7 26-16 5-8 6-16 6-25Zm-110-5c-1-11-4-26-14-33-17-14-41-2-48 13-6 14-7 28-3 43 3 14 13 22 28 23 13 2 24-5 31-17 4-9 5-18 6-29Z"/><path d="M173 282c-22 1-41-5-58-18-2-1-5-3-6-6-1-2-2-6-1-8 1-4 6-4 10-4l18 2a914 914 0 0 0 95 0c2 4 2 8-2 11l-9 7a79 79 0 0 1-47 16Zm86-98c0 9-1 17-6 25-6 9-13 17-26 16-14 0-26-5-31-19-6-18-8-35 2-51 12-19 39-20 52-2 6 9 9 20 9 31Zm-16-4-4-19c-3-6-8-9-16-9-6 0-11 4-13 10-4 11-5 23-2 34 2 11 10 15 20 14 14-1 13-19 15-30Zm-94-1c-1 11-2 20-6 29-7 12-18 19-31 17-15-1-25-9-28-23-4-15-3-29 3-43 7-15 31-27 48-13 10 7 13 22 14 33Zm-17 3c-1-15-2-32-21-29-17 2-19 30-15 43 2 8 9 14 16 15 17 0 19-16 20-29Z" style="fill:#fff"/><path d="M243 180c-2 11-1 29-15 30-10 1-18-3-20-14-3-11-2-23 2-34 2-6 7-10 13-10 8 0 13 3 16 9l4 19Zm-111 2c-1 13-3 29-20 29-7-1-14-7-16-15-4-13-2-41 15-43 19-3 20 14 21 29Z"/></g></svg>