<svg xmlns="http://www.w3.org/2000/svg" data-name="Слой 2" viewBox="0 0 336.3 322.7"><path d="M332 295c-5 10-15 15-24 19-17 8-35 9-54 9l-94-3-19-3c-19-2-37 0-56 2l-48 3c-10 0-17-5-24-12a48 48 0 0 1-12-42c3-15 11-28 26-33l10-4c3-2 4-4 3-8l-1-6c-6-14-2-27 5-39 6-12 17-18 28-24 4-2 4-4 3-7-5-9-3-19-1-28 6-20 18-32 37-39l4-3c3-1 4-3 2-6-3-4-3-9-1-14l11-24c7-10 5-21 3-31l1-2 26 10c28 13 71 46 63 82-1 4 1 6 5 7 16 1 27 11 35 24 4 7 2 14 1 20-2 9-1 10 7 14 31 13 35 39 25 68-1 3 0 4 3 5l18 7c13 6 19 18 22 32 1 9 0 17-4 26Z" data-name="Слой 1"/></svg>